<svg xmlns="http://www.w3.org/2000/svg" viewBox="0 0 144 144" width="144" height="144"><defs><style>.cls-1{fill:#e1533c}.cls-2{fill:#942a19}.cls-3{fill:#fff}.cls-4{fill:none;stroke:#fff;stroke-linecap:round;stroke-miterlimit:10;stroke-width:7.76px}.cls-5{fill:#ffbd32}</style></defs><g id="Layer_2"><g id="icon-visit"><circle cx="72" cy="72" r="72" class="cls-1"/><path d="M130.57 113.85l-46.85-47.1L69 68.71 57 84l-29.53 32.81 24.87 24.45a72 72 0 0 0 78.23-27.41zM89 66.31l44.28 43.53a72 72 0 0 0-7.44-85.66l-7.3 9.32z" class="cls-2"/><path d="M42.21 52.17l16.93 5.66c.17-3.9 2.6-4.85 5.49-5.48a26.35 26.35 0 0 0 5.84-2 6.17 6.17 0 0 0 2.69-2.56c2.62-5.31 1-8.1-4.88-8.18-2.87 0-5-.47-6.3-3.43a6.18 6.18 0 0 0-3.62-3 9.86 9.86 0 0 0-3 .14.62.62 0 0 1-.64-.55 31.37 31.37 0 0 0-.59-4.33c-.52-2.09-1.71-2.37-3-.7A14.82 14.82 0 0 0 48.78 32c-2.23 6.57-4.31 13.19-6.57 20.17z" class="cls-3"/><path d="M54.2 87.36l16.08-18.28m0 0l12.28.57" class="cls-4"/><path d="M42.21 52.17l-1.12 3.09 17.87 6.15.18-3.58-16.93-5.66z" class="cls-5"/><path d="M56.89 117.19A7.65 7.65 0 0 0 63.2 114c2-2.89 2.4-6.5 2.09-10.12-.93-10.61-2.36-21.17-3.71-31.74a83.29 83.29 0 0 0-1.88-9.09c-.2-.82-.73-2-1.37-2.19-5.59-1.86-11.24-3.67-17.24-5.6C35.47 74 29.6 92.39 28.36 112.25a16.87 16.87 0 0 1-5-7.2c-.8-1.86-1.5-3.75-2.22-5.7a1.22 1.22 0 0 0-2.31.05c-1.64 5.37 1.55 13 6.69 16.39a9.08 9.08 0 0 0 3.27 1.4zM89.83 54.6A7.44 7.44 0 0 0 88.14 65l.86 1.2a7.45 7.45 0 0 0 10.38 1.7l30-21.54L133.77 35A71.93 71.93 0 0 0 122 20.25l-6 15.57z" class="cls-3"/></g></g></svg>