<svg xmlns="http://www.w3.org/2000/svg" width="144" height="144" viewBox="0 0 144 144"><defs><style>.cls-1{fill:#e1533c}.cls-2,.cls-5{fill:#942a19}.cls-3{fill:#fff}.cls-4,.cls-7{fill:none}.cls-4,.cls-5{stroke:#942a19;stroke-width:4.29px}.cls-4,.cls-5,.cls-7{stroke-linecap:round;stroke-miterlimit:10}.cls-6{fill:#ffbd32}.cls-7{stroke:#39b54a;stroke-width:4px}</style></defs><g id="Layer_2"><g id="icon-inquire"><path d="M102.61 21.23l40.21 37.87a72 72 0 1 0-75.22 84.75l-32.24-32.57z" class="cls-1"/><path d="M144 72a72.14 72.14 0 0 0-1.18-12.9l-40.21-37.87-67.25 90.05 32.24 32.57c1.46.09 2.92.15 4.4.15a72 72 0 0 0 72-72z" class="cls-2"/><rect width="72" height="94.55" x="33" y="19" class="cls-3" rx="7.89" ry="7.89"/><path d="M41.57 36.14h40.29m-39.86 9h32.57m-32.14 9L90 53.71m-47.14 9.43h40.28" class="cls-4"/><circle cx="47.14" cy="75.14" r="4.29" class="cls-4"/><circle cx="47.14" cy="91.43" r="4.29" class="cls-5"/><path d="M95.63 128.24c-.87-.34-1.74-.64-2.59-1-1.39-.64-2.77-1.32-4.15-2a20 20 0 0 0-7.62-1.95 48.67 48.67 0 0 1-8.16-1 6.61 6.61 0 0 1-3-1.55 7 7 0 0 1-1.91-3.21 12.52 12.52 0 0 1 0-6.84 9 9 0 0 1 2.8-4.39 23.16 23.16 0 0 1 4.55-3.1 44.38 44.38 0 0 0 8.26-5.64c.77-.68 1.51-1.38 2.29-2a6.84 6.84 0 0 1 5.67-1.63 9.4 9.4 0 0 1 3.17 1 6.73 6.73 0 0 1 2.83 3.79 50.79 50.79 0 0 0 4.48 9.48c1.11 1.81 2.25 3.61 3.3 5.46a9.91 9.91 0 0 1 1.4 4.49 11.06 11.06 0 0 1-1.59 6.23 8.47 8.47 0 0 1-4.54 4 13.22 13.22 0 0 1-2.28.37 5.08 5.08 0 0 1-.68 0z" class="cls-6"/><ellipse cx="71.86" cy="91.55" class="cls-6" rx="5.23" ry="8.56" transform="rotate(-2.95 71.678 91.422)"/><ellipse cx="87.76" cy="80.55" class="cls-6" rx="8.56" ry="5.23" transform="rotate(-86.54 87.755 80.546)"/><ellipse cx="103.61" cy="86.06" class="cls-6" rx="8.56" ry="5.23" transform="rotate(-65.33 103.616 86.063)"/><ellipse cx="112.2" cy="101.95" class="cls-6" rx="8.56" ry="5.23" transform="rotate(-45.92 112.19 101.945)"/><path d="M42.1 87.63l4.86 5.34m13.13-12.94l-13 13" class="cls-7"/></g></g></svg>