<svg xmlns="http://www.w3.org/2000/svg" id="Layer_1" viewBox="0 0 409.6 409.6" width="409.6" height="409.6"><style>.st0{fill:#fff}</style><path d="M300.9 280l-.5-3.2c-1.3-7.4-8-16-14.9-19L260 246.5c-6.9-3-17.6-1.9-23.6 2.6l-11 8.2c-33.5-14.8-56.7-46.3-60.9-82.7l11-8.2c6.1-4.5 10.2-14.3 9.4-21.9l-3.2-27.6c-.9-7.5-7.2-16.4-13.8-19.9l-2.9-1.4c-6.8-3.5-17.2-2.6-23.3 1.9l-16.6 12.2c-3 2.2-5.7 9.2-5.7 9.2-15.2 93.6 48.2 181.8 141.8 197 1.2.2 2.3.4 3.5.5.3 0 8-.4 10.9-2.6l16.6-12.2c6.1-4.4 10-14.1 8.7-21.6z" class="st0"/><path d="M204.8 29.2c46.9 0 91 18.3 124.2 51.4s51.4 77.3 51.4 124.2-18.3 91-51.4 124.2-77.3 51.4-124.2 51.4-91-18.3-124.2-51.4-51.4-77.3-51.4-124.2 18.3-91 51.4-124.2 77.3-51.4 124.2-51.4m0-24.4c-110.5 0-200 89.5-200 200s89.5 200 200 200 200-89.5 200-200-89.5-200-200-200z" class="st0"/></svg>