<svg xmlns="http://www.w3.org/2000/svg" width="400" height="400" viewBox="0 0 400 400"><path fill="#fff" d="M0 14.7v370.6A14.7 14.7 0 0 0 14.7 400h370.6a14.7 14.7 0 0 0 14.7-14.7V14.7A14.7 14.7 0 0 0 385.3 0H14.7A14.7 14.7 0 0 0 0 14.7zm299.4 134.4c.1 2.2.1 4.4.1 6.6 0 67.7-51.6 145.9-145.9 145.9a145.9 145.9 0 0 1-78.5-22.9 98.7 98.7 0 0 0 12.2.7 102.8 102.8 0 0 0 63.7-22 51.3 51.3 0 0 1-47.9-35.6 51.6 51.6 0 0 0 23.1-.9 51.4 51.4 0 0 1-41.1-50.3v-.7a51.9 51.9 0 0 0 23.2 6.4 51.5 51.5 0 0 1-15.9-68.5 145.6 145.6 0 0 0 105.7 53.6 56.7 56.7 0 0 1-1.3-11.7 51.3 51.3 0 0 1 88.7-35.1 102 102 0 0 0 32.6-12.4 51.6 51.6 0 0 1-22.6 28.4 103.9 103.9 0 0 0 29.5-8.1 104.5 104.5 0 0 1-25.6 26.6z" style="isolation:isolate"/></svg>