<svg xmlns="http://www.w3.org/2000/svg" width="144" height="144" viewBox="0 0 144 144"><defs><style>.cls-1{fill:#e1533c}.cls-2{fill:#942a19}.cls-3{fill:#fff}.cls-4,.cls-5{fill:none;stroke-linecap:round;stroke-miterlimit:10}.cls-4{stroke:#e1533c;stroke-width:24px}.cls-5{stroke:#fff;stroke-width:14px}.cls-6{fill:#ffbd32}</style></defs><g id="Layer_2"><g id="icon-home"><circle cx="72" cy="72" r="72" class="cls-1"/><path d="M134.31 108.05L106 69.37l-67.46 47.82 19.27 25.4a72 72 0 0 0 76.5-34.54z" class="cls-2"/><path d="M36.33 54.74l36-30.56 33.67 28v59.57a7.71 7.71 0 0 1-7.67 7.75H44a7.72 7.72 0 0 1-7.68-7.75z" class="cls-3"/><path d="M25.07 66.07l40.81-40.81a8.65 8.65 0 0 1 12.24 0l40.81 40.81" class="cls-4"/><path d="M25.07 66.07l40.81-40.81a8.65 8.65 0 0 1 12.24 0l40.81 40.81" class="cls-5"/><path d="M51.24 85a20.88 20.88 0 0 1-1.7-9.3c0-.3.1-.89.13-1.08 1.16-7.38 6.1-11.36 13.5-10.86a10 10 0 0 1 5.83 2.4c1 .91 2 1.91 3 2.88l.09-.07c.34-.37.68-.73 1-1.11 3.09-3.69 7.14-4.79 11.68-4s7.35 3.88 8.84 8.15a12.28 12.28 0 0 1 .69 3.4 16.17 16.17 0 0 1 .13 2.4 13.81 13.81 0 0 1-.29 2.72A27 27 0 0 1 88 92.33 80.53 80.53 0 0 1 72.71 106a1 1 0 0 1-1.46 0c-2.81-2.23-5.72-4.35-8.46-6.68A48 48 0 0 1 52.84 88a24.63 24.63 0 0 1-1.6-3z" class="cls-6"/></g></g></svg>