<?xml version="1.0" encoding="utf-8"?>
<!-- Generator: Adobe Illustrator 22.0.1, SVG Export Plug-In . SVG Version: 6.00 Build 0)  -->
<svg version="1.1" id="Layer_1" xmlns="http://www.w3.org/2000/svg" xmlns:xlink="http://www.w3.org/1999/xlink" x="0px" y="0px"
	 viewBox="0 0 409.6 409.6" style="enable-background:new 0 0 409.6 409.6;" xml:space="preserve">
<style type="text/css">
	.st0{fill:#FFFFFF;}
</style>
<path class="st0" d="M300.9,280l-0.5-3.2c-1.3-7.4-8-16-14.9-19L260,246.5c-6.9-3-17.6-1.9-23.6,2.6l-11,8.2
	c-33.5-14.8-56.7-46.3-60.9-82.7l11-8.2c6.1-4.5,10.2-14.3,9.4-21.9l-3.2-27.6c-0.9-7.5-7.2-16.4-13.8-19.9l-2.9-1.4
	c-6.8-3.5-17.2-2.6-23.3,1.9l-16.6,12.2c-3,2.2-5.7,9.2-5.7,9.2c-15.2,93.6,48.2,181.8,141.8,197c1.2,0.2,2.3,0.4,3.5,0.5
	c0.3,0,8-0.4,10.9-2.6l16.6-12.2C298.3,297.2,302.2,287.5,300.9,280L300.9,280z"/>
<g>
	<path class="st0" d="M204.8,29.2c46.9,0,91,18.3,124.2,51.4s51.4,77.3,51.4,124.2s-18.3,91-51.4,124.2s-77.3,51.4-124.2,51.4
		s-91-18.3-124.2-51.4s-51.4-77.3-51.4-124.2s18.3-91,51.4-124.2S157.9,29.2,204.8,29.2 M204.8,4.8c-110.5,0-200,89.5-200,200
		s89.5,200,200,200s200-89.5,200-200S315.3,4.8,204.8,4.8L204.8,4.8z"/>
</g>
</svg>
