<svg xmlns="http://www.w3.org/2000/svg" width="89.3" height="24.1" viewBox="0 0 89.3 24.1"><path fill="#e1533c" d="M86.5 23.2H2.8a.9.9 0 0 1-.6-1.5L6 18.6a.9.9 0 0 0 0-1.2l-3.8-3.1a.9.9 0 0 1 .6-1.5h83.7a.8.8 0 0 1 .6 1.5l-3.7 3.1a.8.8 0 0 0 0 1.2l3.7 3.1a.8.8 0 0 1-.6 1.5z"/><path fill="#204a94" d="M2.1 1h2.2c1.8 0 2.8.9 2.8 2.4a1.6 1.6 0 0 1-1 1.7 1.9 1.9 0 0 1 1.5 2.1 2.5 2.5 0 0 1-2.8 2.5H2.1zm2.4 3.8a1.4 1.4 0 0 0 1.6-1.4c0-.9-.6-1.4-1.6-1.4H3.1v2.8zm2 2.4c0-.8-.5-1.5-1.7-1.5H3.1v3h1.7C6 8.7 6.5 8 6.5 7.2zM8.9 1H10v8.7H8.9zm7 3.9h3.2v3.8a5.3 5.3 0 0 1-3.4 1.1 4.3 4.3 0 0 1-4.3-4.5A4.3 4.3 0 0 1 15.7.9a4.2 4.2 0 0 1 3.2 1.2l-.8.7a3.3 3.3 0 0 0-2.4-.9 3.3 3.3 0 0 0-3.2 3.4 3.3 3.3 0 0 0 3.2 3.5 4.2 4.2 0 0 0 2.4-.6V5.9h-2.2zm10.7.9c-1.3-.6-2.4-1.2-2.4-2.7A2.3 2.3 0 0 1 26.7.9a3 3 0 0 1 2.4 1.2l-.7.7a2.2 2.2 0 0 0-1.7-.9c-1 0-1.5.6-1.5 1.2s.8 1.3 1.9 1.8 2.2 1.2 2.2 2.6a2.4 2.4 0 0 1-2.7 2.3A3 3 0 0 1 23.9 8l.8-.5a2.1 2.1 0 0 0 1.9 1.3c.8 0 1.6-.4 1.6-1.3s-.7-1.3-1.6-1.7zm5.4-.7L35.5 1h1.3l-3.6 4.2 4 4.5h-1.4L32 5.5v4.2h-1V1h1zm8.5 1.2L37.6 1h1.2l2.3 4.3L43.4 1h1.1l-2.9 5.3v3.4h-1.1zM48.6 1h2.3a2.6 2.6 0 0 1 2.9 2.6 2.6 2.6 0 0 1-2.2 2.5L54 9.7h-1.2l-2.3-3.6h-.8v3.6h-1.1zm4.1 2.6c0-1-.6-1.6-1.8-1.6h-1.2v3.2h1.2a1.6 1.6 0 0 0 1.8-1.6zM58.2 1h1l3.3 8.7h-1.1l-.9-2.4h-3.7l-.9 2.4h-1.1zm-1 5.3h3l-1.5-3.8zM65 1l4.6 6.9V1h1v8.7h-1l-4.7-6.9v6.9h-1V1zm13.5 1.9a3.1 3.1 0 0 0-2.3-1A3.3 3.3 0 0 0 73 5.3a3.2 3.2 0 0 0 5.6 2.4l.8.7a4.5 4.5 0 0 1-3.2 1.4 4.3 4.3 0 0 1-4.3-4.5A4.3 4.3 0 0 1 76.2.9a4.2 4.2 0 0 1 3.1 1.3zM86.2 1h1.1v8.7h-1.1v-4h-4.3v4h-1V1h1v3.7h4.3z"/><path fill="#fff" d="M11.1 15.2h.6l2 5.3h-.6l-.6-1.4h-2.3l-.5 1.4H9zm-.6 3.2h1.8l-.9-2.3zm4.8-3.2l2.8 4.2v-4.2h.6v5.3h-.6l-2.9-4.3v4.3h-.6v-5.3zm4.8 0h.6v5.3h-.6zm2.6 0l1.9 2.9 1.8-2.9h.6v5.3h-.6v-4.2l-1.8 3-1.9-3v4.2h-.6v-5.3zm7.3 0h.6l2 5.3H32l-.6-1.4h-2.3l-.5 1.4h-.7zm-.7 3.2h1.9l-.9-2.3zm4.2-3.2h.6v4.7h2.4v.6h-3zm7.2 2.9c-.7-.4-1.4-.7-1.4-1.6a1.4 1.4 0 0 1 1.5-1.4 1.9 1.9 0 0 1 1.5.7l-.4.4a1.5 1.5 0 0 0-1.1-.5.8.8 0 0 0-.9.8c0 .5.5.7 1.2 1.1s1.3.7 1.3 1.5a1.5 1.5 0 0 1-1.6 1.5 1.8 1.8 0 0 1-1.7-1.1l.5-.3a1.3 1.3 0 0 0 1.2.8.9.9 0 0 0 1-.9c0-.5-.5-.7-1.1-1zm4.3-2.9h.6l2.1 5.3H47l-.6-1.4h-2.3l-.5 1.4h-.7zm-.6 3.2h1.8l-.9-2.3zm4.8-3.2l2.8 4.2v-4.2h.7v5.3H52l-2.9-4.3v4.3h-.6v-5.3zm8.5 1.1a2 2 0 0 0-3.4 1.5 2 2 0 0 0 1.9 2.2 2.2 2.2 0 0 0 1.6-.7l.4.4a2.6 2.6 0 0 1-4.6-1.9 2.6 2.6 0 0 1 2.6-2.7 2.4 2.4 0 0 1 1.9.8zm2.6-.5h-1.5v-.6h3.7v.6h-1.6v4.7h-.6zm6.3-.6h.6v3.3a1.9 1.9 0 0 1-1.9 2.1 2 2 0 0 1-2-2.1v-3.3h.7v3.3c0 .8.4 1.5 1.3 1.5s1.3-.7 1.3-1.5zm3.4 0h.6l2.1 5.3H72l-.5-1.4h-2.3l-.6 1.4h-.7zm-.6 3.2h1.8l-.9-2.3zm4.1-3.2h1.4c1.1 0 1.8.6 1.8 1.5a1.7 1.7 0 0 1-1.3 1.6l1.5 2.2h-.8l-1.4-2.2h-.5v2.2h-.7zm2.6 1.5c0-.5-.4-.9-1.2-.9h-.7v1.9h.7c.8 0 1.2-.4 1.2-1zm2.8 1.7l-1.8-3.2h.7l1.4 2.6 1.4-2.6h.7l-1.8 3.2v2.1h-.6z"/></svg>